<?xml version="1.0" encoding="UTF-8"?>
<svg id="Layer_1" data-name="Layer 1" xmlns="http://www.w3.org/2000/svg" viewBox="0 0 615 281">
  <defs>
    <style>
      .cls-1 {
        fill: #fff;
      }

      .cls-2 {
        fill: #fb773c;
      }

      .cls-3 {
        fill: #180161;
      }

      .cls-4 {
        fill: #eb3678;
      }

      .cls-5 {
        fill: #4f1787;
      }

      .cls-6 {
        fill: #040509;
      }
      .wings {
        animation: ease-in-out 2s wingFlaping infinite;
      }
      .indwing {
        animation: ease-in-out 2s wingSize infinite;
      }
      @keyframes wingFlaping {
        0% {
            transform: rotate(0deg);
        }
        50% {
            transform: rotate(5deg);
        }
        100% {
            transform: rotate(0deg);
        }
      }
      @keyframes wingSize {
        0% {
            transform: scale(1) translate(0px, 0px);
        }
        50% {
            transform: scale(1.01) translate(-5px, -30px);
        }
        100% {
            transform: scale(1) translate(0px, 0px);
        }
      }
      @keyframes scaleLetter {
        0% {
            transform: scale(.99);
        }
        50% {
            transform: scale(.97);
        }
        100% {
            transform: scale(.99);
        }
      }
      @keyframes scaleLetterTwo {
        0% {
            transform: scale(.99);
        }
        25% {
            transform: scale(.97);
        }
        50% {
            transform: scale(.99);
        }
        75% {
            transform: scale(.97);
        }
        100% {
            transform: scale(.99);
        }
      }
      @keyframes scaleLetterThree {
        0% {
            transform: rotate(0deg) scale(.99);
        }
        50% {
            transform: rotate(-.5deg) scale(.98);
        }
        100% {
            transform: rotate(0deg) scale(.99);
        }
      }
      .g {
        animation: ease-in-out 2s scaleLetter infinite;
      }
      .u {
        animation: ease-in-out 2s scaleLetter infinite;
      }
      .gg {
        animation: ease-in-out 2s scaleLetterTwo infinite;
      }
      .uu {
        animation: ease-in-out 2s scaleLetterTwo infinite;
      }
      .l {
        animation: ease-in-out 2s scaleLetterThree infinite;
      }
      .i {
        animation: ease-in-out 2s scaleLetterThree infinite;
      }
      .bird {
        animation: ease-in-out 2s scaleLetterFour infinite;
      }
      @keyframes scaleLetterFour {
        0% {
            transform: translate(0px, 0px);
        }
        50% {
            transform: translate(-10px, 4px);
        }
        100% {
            transform: translate(0px, 0px);
        }
      }
    </style>
  </defs>
  <g>
    <path class="cls-4 g" d="M68.47,243.02l.35-23.8c0-1.63,1.69-2.71,5.08-3.24,3.38-.53,6.18-.79,8.4-.79l6.83,.53c4.43,.7,6.65,1.92,6.65,3.68l-.7,54.78c-2.34,1.64-7.03,3.24-14.09,4.81-7.06,1.58-15.14,2.36-24.24,2.36-16.92,0-30.57-5.48-40.96-16.45C5.4,253.93,.21,237.83,.21,216.59c0-18.08,5.08-32.79,15.23-44.11,10.15-11.32,24.21-16.98,42.18-16.98,8.17,0,15.55,.79,22.14,2.36,6.59,1.58,11.11,3.71,13.56,6.39,.11,.94,.17,2.69,.17,5.25s-.88,6.21-2.62,10.94c-1.75,4.73-3.74,8.26-5.95,10.59-2.22,2.34-3.82,3.5-4.81,3.5s-2.04-.44-3.15-1.31c-1.11-.88-3.3-1.81-6.56-2.8-3.27-.99-6.42-1.49-9.45-1.49-7.24,0-13.1,2.34-17.59,7-4.49,4.67-6.74,11.9-6.74,21.7s2.3,17.24,6.91,22.32c4.61,5.08,9.92,7.61,15.93,7.61s9.01-1.51,9.01-4.55Z"/>
    <path class="cls-4 u" d="M169.63,160.59c0-2.33,6.33-3.5,18.99-3.5s18.99,1.17,18.99,3.5v80.33c0,11.9-4.26,21.62-12.78,29.14-8.52,7.53-20.28,11.29-35.27,11.29s-27.19-3.88-36.58-11.64c-9.39-7.76-14.09-18.23-14.09-31.42v-77.54c0-2.33,6.33-3.5,18.99-3.5s18.99,1.17,18.99,3.5v78.93c0,2.34,1.23,4.2,3.68,5.6,2.57,1.4,5.25,2.1,8.05,2.1s5.34-.64,7.61-1.92c2.28-1.28,3.41-3.21,3.41-5.78v-79.11Z"/>
    <path class="cls-2 gg" d="M287.07,243.02l.35-23.8c0-1.63,1.69-2.71,5.08-3.24,3.38-.53,6.18-.79,8.4-.79l6.83,.53c4.43,.7,6.65,1.92,6.65,3.68l-.7,54.78c-2.34,1.64-7.03,3.24-14.09,4.81-7.06,1.58-15.14,2.36-24.24,2.36-16.92,0-30.57-5.48-40.96-16.45-10.39-10.97-15.58-27.07-15.58-48.31,0-18.08,5.08-32.79,15.23-44.11,10.15-11.32,24.21-16.98,42.18-16.98,8.17,0,15.55,.79,22.14,2.36,6.59,1.58,11.11,3.71,13.56,6.39,.11,.94,.17,2.69,.17,5.25s-.88,6.21-2.62,10.94c-1.75,4.73-3.74,8.26-5.95,10.59-2.22,2.34-3.82,3.5-4.81,3.5s-2.04-.44-3.15-1.31c-1.11-.88-3.3-1.81-6.56-2.8-3.27-.99-6.42-1.49-9.45-1.49-7.24,0-13.1,2.34-17.59,7-4.49,4.67-6.74,11.9-6.74,21.7s2.3,17.24,6.91,22.32c4.61,5.08,9.92,7.61,15.93,7.61s9.01-1.51,9.01-4.55Z"/>
    <path class="cls-2 uu" d="M388.23,160.59c0-2.33,6.33-3.5,18.99-3.5s18.99,1.17,18.99,3.5v80.33c0,11.9-4.26,21.62-12.78,29.14-8.52,7.53-20.28,11.29-35.27,11.29s-27.19-3.88-36.58-11.64c-9.39-7.76-14.09-18.23-14.09-31.42v-77.54c0-2.33,6.33-3.5,18.99-3.5s18.99,1.17,18.99,3.5v78.93c0,2.34,1.23,4.2,3.68,5.6,2.57,1.4,5.25,2.1,8.05,2.1s5.34-.64,7.61-1.92c2.28-1.28,3.41-3.21,3.41-5.78v-79.11Z"/>
    <path class="cls-5 l" d="M439.16,269.28v-108.86c0-2.45,5.92-3.68,17.76-3.68s17.76,1.23,17.76,3.68v85.76h26.95c2.1,0,3.56,2.74,4.38,8.23,.35,2.69,.52,5.43,.52,8.23s-.17,5.66-.52,8.58c-.94,5.6-2.45,8.4-4.55,8.4h-53.91c-2.57,0-4.61-1.05-6.13-3.15-1.52-2.1-2.28-4.49-2.28-7.18Z"/>
    <path class="cls-5 i" d="M528.59,249.5v-62.31h-12.43c-1.99,0-3.39-2.51-4.2-7.53-.35-2.45-.53-4.96-.53-7.53s.17-5.08,.53-7.53c.81-5.02,2.21-7.53,4.2-7.53h58.81c1.98,0,3.33,2.51,4.03,7.53,.46,2.45,.7,4.96,.7,7.53s-.24,5.08-.7,7.53c-.7,5.02-2.04,7.53-4.03,7.53h-11.73v62.31h12.25c1.98,0,3.38,2.51,4.2,7.53,.46,2.45,.7,4.96,.7,7.53s-.24,5.08-.7,7.53c-.82,5.02-2.22,7.53-4.2,7.53h-58.98c-1.99,0-3.33-2.51-4.03-7.53-.47-2.45-.7-4.96-.7-7.53s.23-5.08,.7-7.53c.7-5.02,2.04-7.53,4.03-7.53h12.08Z"/>
  </g>
  <g>
    <g>
      <g>
        <path class="cls-5 bird" d="M609.25,107.9l-16.55,7.38-11.09,4.93-6.81,3.05-4.74,2.1c.1-.02,.94-1.17,2.25-3.11,.1-.16,.22-.32,.36-.55,1.55-2.26,3.7-5.46,6.08-9,6.04-9.07,13.62-20.57,16.9-25.6,.78-1.19,2.52-1.14,3.27,.07l11.17,17.9c.62,1.02,.23,2.33-.85,2.83Z"/>
        <path class="cls-6 bird" d="M592.84,115.2l-13.95-2.58c-2.39,3.55-4.53,6.74-6.08,9-.81,.14-1.29,.17-1.32,.15l.96,.4c-.14,.21-.28,.41-.41,.6l9.96-2.75,10.84-4.81Z"/>
      </g>
      <g>
        <path class="cls-5 bird" d="M614.7,116.73l-4.77,18.67c-.24,1.03-1.38,1.63-2.37,1.21l-24.57-10.02-8.22-3.34-2.49-1.01-.96-.4s.51-.01,1.32-.15c1.73-.25,4.96-.79,8.94-1.49,3.51-.61,7.62-1.37,11.75-2.1,7.69-1.41,15.38-2.82,19.3-3.56,1.3-.23,2.36,.93,2.06,2.2Z"/>
        <path class="cls-6 bird" d="M581.58,120.09l-9.96,2.75c-1.07,1.57-1.75,2.48-1.84,2.5l4.74-2.1,8.22,3.34c3.81-3.12,7.81-6.4,10.35-8.49-4.14,.73-8.24,1.49-11.75,2.1l.25-.11Z"/>
      </g>
    </g>
    <g>
      <path class="cls-4 bird" d="M408.55,43.36l37.12,9.26,.83-9.62-37.27-.58c-.55,0-.84,.5-.71,.93"/>
      <path class="cls-2 bird" d="M407.41,50.68c.08,.16,.21,.29,.43,.35l38.79,10.62-1-9.09-38.21-1.88Z"/>
    </g>
    <path class="cls-2 bird" d="M584.96,116.88c-12.69,11.36-37.7,22.09-63.31,24.08-9.36,.73-18.79,.3-27.73-1.73-15.97-3.55-30.36-12.11-39.93-27.92-.82-1.34-1.59-2.76-2.34-4.24-3.11-6-5.78-13.07-7.6-20.12-1.63-6.28-2.62-12.57-2.66-18.18-.07-7.32,.55-15.36,2.28-22.4,2.7-11.88,12.83-21.11,25.61-22.1,6.15-.48,12.04,1.02,16.95,3.97,4.33,2.63,7.93,6.34,10.34,10.81,.66,1.01,1.32,2.01,1.93,3.03,.67,1.14,1.29,2.25,1.88,3.4,4.78,9.13,7.28,19.14,10.86,28.73,1.2,3.21,2.54,6.42,4.05,9.53,3.25,6.78,7.3,13.22,12.47,18.82,6.18,6.71,14.08,12.26,22.99,15.27,1.96,.67,3.96,1.2,6,1.6,9.16,1.77,19.2,.6,27.35-3.74,.79-.41,1.53,.62,.86,1.2Z"/>
    <path class="cls-2 bird" d="M550.75,117.83c-3.17,1.07-6.53,1.75-10,2.08-20.04,1.83-38.17-9.78-45.55-27.41-1.73-4.15-2.89-8.61-3.29-13.32,7.9,2.19,15.69,3.73,23.37,4.56,3.25,6.78,7.3,13.22,12.47,18.82,6.18,6.71,14.08,12.26,22.99,15.27Z"/>
    <path class="cls-3 bird" d="M498.5,42.07c-.03,23.68-18.27,43.7-42.28,45.57-4.18,.33-8.25,.09-12.17-.69-1.63-6.28-2.62-12.57-2.66-18.18-.07-7.32,.55-15.36,2.28-22.4,2.7-11.88,12.83-21.11,25.61-22.1,6.15-.48,12.04,1.02,16.95,3.97,4.33,2.63,7.93,6.34,10.34,10.81,.66,1.01,1.32,2.01,1.93,3.03Z"/>
    <path class="cls-6 bird" d="M498.46,43.03c-.49,23.27-18.55,42.77-42.24,44.61-4.18,.33-8.25,.09-12.17-.69-.45-1.68-.82-3.4-1.14-5.07,1.17,.04,2.33,0,3.52-.04,24.87-1.01,44.95-16.99,52.03-38.82Z"/>
    <g>
      <path class="cls-6 bird" d="M472.55,52.2c.46,5.89-3.93,11.03-9.83,11.49s-11.03-3.93-11.49-9.83,3.93-11.03,9.83-11.49c5.89-.46,11.03,3.93,11.49,9.83Z"/>
      <g>
        <path class="cls-1 bird" d="M469.27,55.81c-2.36,5.42-8.65,7.89-14.07,5.53s-7.89-8.65-5.53-14.07,8.65-7.89,14.07-5.53,7.89,8.65,5.53,14.07Z"/>
        <path class="bird" d="M459.1,50.4c-.84,1.92-3.07,2.8-5,1.96s-2.8-3.07-1.96-5,3.07-2.8,5-1.96,2.8,3.07,1.96,5Z"/>
      </g>
    </g>
    <g class="wings">
      <path class="cls-5 indwing" d="M538.02,123.08c-20.13,.37-37.38-12.49-43.49-30.59-1.43-4.26-2.25-8.81-2.33-13.54,30.38,10.79,59.77,11.44,87.92-.84,.65-.25,1.33-.55,1.99-.85,.47,24.84-19.26,45.34-44.1,45.82Z"/>
      <path class="cls-3 indwing" d="M580.13,78.12c-4.72,12.5-14.02,22.41-26.19,27.95-8.83,4.01-18.55,5.4-28.1,3.99-12.24-1.8-23.46-8.15-31.3-17.57-1.43-4.26-2.25-8.81-2.33-13.54,30.38,10.79,59.77,11.44,87.92-.84Z"/>
      <path class="cls-5 indwing" d="M551.76,101.27c-19.77,8.98-42.63,2.52-54.91-14.38-1.78-2.42-3.33-5.08-4.64-7.94,27.33-1.81,51.1-10.1,70.55-26.29,3.95-3.31,7.71-6.94,11.32-10.94,10.29,22.63,.29,49.29-22.32,59.56Z"/>
      <path class="cls-3 indwing" d="M562.76,52.66c-1.07,4.03-2.64,7.96-4.73,11.67-10.12,18.05-30.68,28.17-51.16,25.15-3.42-.5-6.78-1.37-10.02-2.6-1.78-2.42-3.33-5.08-4.64-7.94,27.33-1.81,51.1-10.1,70.55-26.29Z"/>
      <path class="cls-5 indwing" d="M536.2,.53c21.67,12.16,29.37,39.56,17.22,61.23-12.16,21.67-39.56,29.38-61.23,17.22,25.26-21.23,40.82-46.96,44.01-78.45Z"/>
    </g>
    <path class="cls-4 bird" d="M493.92,139.24c-15.97-3.55-30.36-12.11-39.93-27.92-.82-1.34-1.59-2.76-2.34-4.24,.5-.09,1.02-.13,1.52-.17,20.09-1.56,37.77,12.72,40.75,32.33Z"/>
  </g>
</svg>