<svg xmlns="http://www.w3.org/2000/svg" viewBox="0 0 200 200">
  <style type="text/css">
    .gearone {
      animation: coloring 5s infinite;
    }
    @keyframes coloring {
      0% {
        stroke: #4f1787;
        fill: #4f1787;
      }
      25% {
        stroke: #4F1787;
        fill: #4F1787;
      }
      50% {
        stroke: #eb3678;
        fill: #eb3678;
      }
      75% {
        stroke: #fb773c;
        fill: #fb773c;
      }
      100% {
        stroke: #4f1787;
        fill: #4f1787;
      }
    }
  </style>
  <path class="gearone" fill="#180161" stroke="#180161" stroke-width="15" transform-origin="center"
    d="m148 84.7 13.8-8-10-17.3-13.8 8a50 50 0 0 0-27.4-15.9v-16h-20v16A50 50 0 0 0 63 67.4l-13.8-8-10 17.3 13.8 8a50 50 0 0 0 0 31.7l-13.8 8 10 17.3 13.8-8a50 50 0 0 0 27.5 15.9v16h20v-16a50 50 0 0 0 27.4-15.9l13.8 8 10-17.3-13.8-8a50 50 0 0 0 0-31.7Zm-47.5 50.8a35 35 0 1 1 0-70 35 35 0 0 1 0 70Z">
    <animateTransform type="rotate" attributeName="transform" calcMode="spline" dur="2" values="0;120" keyTimes="0;1"
      keySplines="0 0 1 1" repeatCount="indefinite"></animateTransform>
  </path>
</svg>